ffmpeg version 4.0.4-0ubuntu1 Copyright (c) 2000-2019 the FFmpeg developers
  built with gcc 8 (Ubuntu 8.2.0-7ubuntu1)
  configuration: --prefix=/usr --extra-version=0ubuntu1 --toolchain=hardened --libdir=/usr/lib/x86_64-linux-gnu --incdir=/usr/include/x86_64-linux-gnu --arch=amd64 --enable-gpl --disable-stripping --enable-avresample --disable-filter=resample --enable-avisynth --enable-gnutls --enable-ladspa --enable-libaom --enable-libass --enable-libbluray --enable-libbs2b --enable-libcaca --enable-libcdio --enable-libcodec2 --enable-libflite --enable-libfontconfig --enable-libfreetype --enable-libfribidi --enable-libgme --enable-libgsm --enable-libjack --enable-libmp3lame --enable-libmysofa --enable-libopenjpeg --enable-libopenmpt --enable-libopus --enable-libpulse --enable-librsvg --enable-librubberband --enable-libshine --enable-libsnappy --enable-libsoxr --enable-libspeex --enable-libssh --enable-libtheora --enable-libtwolame --enable-libvorbis --enable-libvpx --enable-libwavpack --enable-libwebp --enable-libx265 --enable-libxml2 --enable-libxvid --enable-libzmq --enable-libzvbi --enable-lv2 --enable-omx --enable-openal --enable-opengl --enable-sdl2 --enable-libdc1394 --enable-libdrm --enable-libiec61883 --enable-chromaprint --enable-frei0r --enable-libopencv --enable-libx264 --enable-shared
  libavutil      56. 14.100 / 56. 14.100
  libavcodec     58. 18.100 / 58. 18.100
  libavformat    58. 12.100 / 58. 12.100
  libavdevice    58.  3.100 / 58.  3.100
  libavfilter     7. 16.100 /  7. 16.100
  libavresample   4.  0.  0 /  4.  0.  0
  libswscale      5.  1.100 /  5.  1.100
  libswresample   3.  1.100 /  3.  1.100
  libpostproc    55.  1.100 / 55.  1.100
Input #0, rtsp, from 'rtsp://admin:xiriox3000@10.1.1.75:554':
  Metadata:
    title           : Media Presentation
  Duration: N/A, start: 0.399333, bitrate: N/A
    Stream #0:0: Video: h264 (Main), yuvj420p(pc, bt709, progressive), 1280x720 [SAR 1:1 DAR 16:9], 15 fps, 15 tbr, 90k tbn, 30 tbc
Output #0, mp4, to '/home/xirioxinf/Ext1/2020-01-03/CAM5//CAM5_admin123_admin_2020-01-03_13-36-13.mp4':
  Metadata:
    title           : Media Presentation
    encoder         : Lavf58.12.100
    Stream #0:0: Video: h264 (Main) (avc1 / 0x31637661), yuvj420p(pc, bt709, progressive), 1280x720 [SAR 1:1 DAR 16:9], q=2-31, 15 fps, 15 tbr, 90k tbn, 90k tbc
Stream mapping:
  Stream #0:0 -> #0:0 (copy)
Press [q] to stop, [?] for help
[mp4 @ 0x559783c83440] Non-monotonous DTS in output stream 0:0; previous: 0, current: -30000; changing to 1. This may result in incorrect timestamps in the output file.
[mp4 @ 0x559783c83440] Non-monotonous DTS in output stream 0:0; previous: 1, current: -23970; changing to 2. This may result in incorrect timestamps in the output file.
[mp4 @ 0x559783c83440] Non-monotonous DTS in output stream 0:0; previous: 2, current: -17940; changing to 3. This may result in incorrect timestamps in the output file.
[mp4 @ 0x559783c83440] Non-monotonous DTS in output stream 0:0; previous: 3, current: -12000; changing to 4. This may result in incorrect timestamps in the output file.
[mp4 @ 0x559783c83440] Non-monotonous DTS in output stream 0:0; previous: 4, current: -5970; changing to 5. This may result in incorrect timestamps in the output file.
frame=   37 fps=0.0 q=-1.0 size=     512kB time=00:00:02.00 bitrate=2096.6kbits/s speed=3.77x    frame=   45 fps= 43 q=-1.0 size=     768kB time=00:00:02.53 bitrate=2483.3kbits/s speed= 2.4x    frame=   53 fps= 33 q=-1.0 size=    1024kB time=00:00:03.06 bitrate=2735.5kbits/s speed=1.93x    frame=   61 fps= 29 q=-1.0 size=    1024kB time=00:00:03.60 bitrate=2329.8kbits/s speed= 1.7x    frame=   69 fps= 26 q=-1.0 size=    1280kB time=00:00:04.13 bitrate=2536.8kbits/s speed=1.55x    frame=   77 fps= 24 q=-1.0 size=    1536kB time=00:00:04.66 bitrate=2696.4kbits/s speed=1.46x    frame=   85 fps= 23 q=-1.0 size=    1536kB time=00:00:05.20 bitrate=2419.5kbits/s speed= 1.4x    frame=   93 fps= 22 q=-1.0 size=    1792kB time=00:00:05.73 bitrate=2560.4kbits/s speed=1.34x    frame=  101 fps= 21 q=-1.0 size=    1792kB time=00:00:06.26 bitrate=2342.6kbits/s speed=1.31x    frame=  109 fps= 21 q=-1.0 size=    2048kB time=00:00:06.80 bitrate=2467.0kbits/s speed=1.28x    frame=  117 fps= 20 q=-1.0 size=    2048kB time=00:00:07.33 bitrate=2287.7kbits/s speed=1.26x    frame=  125 fps= 20 q=-1.0 size=    2304kB time=00:00:07.86 bitrate=2399.3kbits/s speed=1.23x    frame=  133 fps= 19 q=-1.0 size=    2560kB time=00:00:08.40 bitrate=2496.5kbits/s speed=1.21x    frame=  141 fps= 19 q=-1.0 size=    2560kB time=00:00:08.93 bitrate=2347.5kbits/s speed= 1.2x    frame=  149 fps= 19 q=-1.0 size=    2816kB time=00:00:09.46 bitrate=2436.9kbits/s speed=1.19x    frame=  157 fps= 18 q=-1.0 size=    3072kB time=00:00:10.00 bitrate=2516.5kbits/s speed=1.18x    frame=  165 fps= 18 q=-1.0 size=    3072kB time=00:00:10.53 bitrate=2389.1kbits/s speed=1.16x    frame=  173 fps= 18 q=-1.0 size=    3328kB time=00:00:11.06 bitrate=2463.6kbits/s speed=1.16x    frame=  181 fps= 18 q=-1.0 size=    3328kB time=00:00:11.60 bitrate=2350.2kbits/s speed=1.15x    frame=  189 fps= 18 q=-1.0 size=    3584kB time=00:00:12.13 bitrate=2419.8kbits/s speed=1.14x    frame=  197 fps= 18 q=-1.0 size=    3584kB time=00:00:12.66 bitrate=2317.9kbits/s speed=1.13x    frame=  205 fps= 18 q=-1.0 size=    3840kB time=00:00:13.20 bitrate=2383.0kbits/s speed=1.13x    frame=  213 fps= 17 q=-1.0 size=    4096kB time=00:00:13.73 bitrate=2443.3kbits/s speed=1.12x    frame=  221 fps= 17 q=-1.0 size=    4096kB time=00:00:14.26 bitrate=2352.0kbits/s speed=1.12x    frame=  229 fps= 17 q=-1.0 size=    4352kB time=00:00:14.80 bitrate=2408.8kbits/s speed=1.11x    frame=  237 fps= 17 q=-1.0 size=    4352kB time=00:00:15.33 bitrate=2325.1kbits/s speed=1.11x    frame=  245 fps= 17 q=-1.0 size=    4608kB time=00:00:15.86 bitrate=2379.1kbits/s speed= 1.1x    frame=  253 fps= 17 q=-1.0 size=    4864kB time=00:00:16.40 bitrate=2429.6kbits/s speed= 1.1x    frame=  261 fps= 17 q=-1.0 size=    4864kB time=00:00:16.93 bitrate=2353.1kbits/s speed= 1.1x    frame=  269 fps= 17 q=-1.0 size=    5120kB time=00:00:17.46 bitrate=2401.3kbits/s speed=1.09x    frame=  277 fps= 17 q=-1.0 size=    5376kB time=00:00:18.00 bitrate=2446.6kbits/s speed=1.09x    frame=  285 fps= 17 q=-1.0 size=    5376kB time=00:00:18.53 bitrate=2376.2kbits/s speed=1.09x    frame=  293 fps= 17 q=-1.0 size=    5632kB time=00:00:19.06 bitrate=2419.8kbits/s speed=1.09x    frame=  301 fps= 17 q=-1.0 size=    5632kB time=00:00:19.60 bitrate=2353.9kbits/s speed=1.08x    frame=  309 fps= 17 q=-1.0 size=    5888kB time=00:00:20.13 bitrate=2395.7kbits/s speed=1.08x    frame=  317 fps= 17 q=-1.0 size=    6144kB time=00:00:20.66 bitrate=2435.4kbits/s speed=1.08x    frame=  325 fps= 16 q=-1.0 size=    6144kB time=00:00:21.20 bitrate=2374.1kbits/s speed=1.08x    frame=  333 fps= 16 q=-1.0 size=    6400kB time=00:00:21.73 bitrate=2412.3kbits/s speed=1.07x    frame=  341 fps= 16 q=-1.0 size=    6656kB time=00:00:22.26 bitrate=2448.8kbits/s speed=1.07x    frame=  349 fps= 16 q=-1.0 size=    6656kB time=00:00:22.80 bitrate=2391.4kbits/s speed=1.07x    frame=  357 fps= 16 q=-1.0 size=    6912kB time=00:00:23.33 bitrate=2426.7kbits/s speed=1.07x    frame=  365 fps= 16 q=-1.0 size=    7168kB time=00:00:23.86 bitrate=2460.4kbits/s speed=1.07x    frame=  373 fps= 16 q=-1.0 size=    7168kB time=00:00:24.40 bitrate=2406.5kbits/s speed=1.07x    frame=  381 fps= 16 q=-1.0 size=    7424kB time=00:00:24.93 bitrate=2439.2kbits/s speed=1.06x    frame=  389 fps= 16 q=-1.0 size=    7680kB time=00:00:25.46 bitrate=2470.5kbits/s speed=1.06x    frame=  397 fps= 16 q=-1.0 size=    7680kB time=00:00:26.00 bitrate=2419.7kbits/s speed=1.06x    frame=  405 fps= 16 q=-1.0 size=    7936kB time=00:00:26.53 bitrate=2450.2kbits/s speed=1.06x    frame=  413 fps= 16 q=-1.0 size=    8192kB time=00:00:27.06 bitrate=2479.4kbits/s speed=1.06x    frame=  421 fps= 16 q=-1.0 size=    8192kB time=00:00:27.60 bitrate=2431.4kbits/s speed=1.06x    frame=  429 fps= 16 q=-1.0 size=    8448kB time=00:00:28.13 bitrate=2459.9kbits/s speed=1.06x    frame=  437 fps= 16 q=-1.0 size=    8704kB time=00:00:28.66 bitrate=2487.3kbits/s speed=1.06x    frame=  445 fps= 16 q=-1.0 size=    8704kB time=00:00:29.20 bitrate=2441.8kbits/s speed=1.05x    frame=  453 fps= 16 q=-1.0 size=    8960kB time=00:00:29.73 bitrate=2468.6kbits/s speed=1.05x    frame=  461 fps= 16 q=-1.0 size=    9216kB time=00:00:30.26 bitrate=2494.4kbits/s speed=1.05x    frame=  469 fps= 16 q=-1.0 size=    9216kB time=00:00:30.80 bitrate=2451.2kbits/s speed=1.05x    frame=  477 fps= 16 q=-1.0 size=    9472kB time=00:00:31.33 bitrate=2476.4kbits/s speed=1.05x    frame=  485 fps= 16 q=-1.0 size=    9728kB time=00:00:31.86 bitrate=2500.8kbits/s speed=1.05x    frame=  493 fps= 16 q=-1.0 size=    9728kB time=00:00:32.40 bitrate=2459.6kbits/s speed=1.05x    frame=  501 fps= 16 q=-1.0 size=    9984kB time=00:00:32.93 bitrate=2483.5kbits/s speed=1.05x    frame=  509 fps= 16 q=-1.0 size=   10240kB time=00:00:33.46 bitrate=2506.6kbits/s speed=1.05x    frame=  517 fps= 16 q=-1.0 size=   10240kB time=00:00:34.00 bitrate=2467.2kbits/s speed=1.05x    frame=  525 fps= 16 q=-1.0 size=   10496kB time=00:00:34.53 bitrate=2489.8kbits/s speed=1.05x    frame=  533 fps= 16 q=-1.0 size=   10752kB time=00:00:35.06 bitrate=2511.8kbits/s speed=1.04x    frame=  541 fps= 16 q=-1.0 size=   10752kB time=00:00:35.60 bitrate=2474.1kbits/s speed=1.04x    frame=  549 fps= 16 q=-1.0 size=   11008kB time=00:00:36.13 bitrate=2495.7kbits/s speed=1.04x    frame=  557 fps= 16 q=-1.0 size=   11520kB time=00:00:36.66 bitrate=2573.8kbits/s speed=1.04x    frame=  565 fps= 16 q=-1.0 size=   11776kB time=00:00:37.20 bitrate=2593.2kbits/s speed=1.04x    frame=  573 fps= 16 q=-1.0 size=   12032kB time=00:00:37.73 bitrate=2612.2kbits/s speed=1.04x    frame=  581 fps= 16 q=-1.0 size=   12032kB time=00:00:38.26 bitrate=2575.8kbits/s speed=1.04x    frame=  589 fps= 16 q=-1.0 size=   12288kB time=00:00:38.80 bitrate=2594.4kbits/s speed=1.04x    frame=  597 fps= 16 q=-1.0 size=   12544kB time=00:00:39.33 bitrate=2612.5kbits/s speed=1.04x    frame=  605 fps= 16 q=-1.0 size=   12544kB time=00:00:39.86 bitrate=2577.6kbits/s speed=1.04x    frame=  613 fps= 16 q=-1.0 size=   12800kB time=00:00:40.40 bitrate=2595.5kbits/s speed=1.04x    frame=  621 fps= 16 q=-1.0 size=   13056kB time=00:00:40.93 bitrate=2612.9kbits/s speed=1.04x    frame=  629 fps= 16 q=-1.0 size=   13056kB time=00:00:41.46 bitrate=2579.3kbits/s speed=1.04x    frame=  637 fps= 16 q=-1.0 size=   13312kB time=00:00:42.00 bitrate=2596.4kbits/s speed=1.04x    frame=  645 fps= 16 q=-1.0 size=   13312kB time=00:00:42.53 bitrate=2563.9kbits/s speed=1.04x    frame=  653 fps= 16 q=-1.0 size=   13568kB time=00:00:43.06 bitrate=2580.9kbits/s speed=1.04x    frame=  661 fps= 16 q=-1.0 size=   13824kB time=00:00:43.60 bitrate=2597.4kbits/s speed=1.04x    frame=  669 fps= 16 q=-1.0 size=   13824kB time=00:00:44.13 bitrate=2566.0kbits/s speed=1.04x    frame=  677 fps= 16 q=-1.0 size=   14080kB time=00:00:44.66 bitrate=2582.3kbits/s speed=1.03x    frame=  685 fps= 16 q=-1.0 size=   14336kB time=00:00:45.20 bitrate=2598.2kbits/s speed=1.03x    frame=  693 fps= 16 q=-1.0 size=   14336kB time=00:00:45.73 bitrate=2567.9kbits/s speed=1.03x    frame=  701 fps= 16 q=-1.0 size=   14592kB time=00:00:46.26 bitrate=2583.7kbits/s speed=1.03x    frame=  709 fps= 16 q=-1.0 size=   14848kB time=00:00:46.80 bitrate=2599.0kbits/s speed=1.03x    frame=  717 fps= 16 q=-1.0 size=   15104kB time=00:00:47.33 bitrate=2614.0kbits/s speed=1.03x    frame=  725 fps= 16 q=-1.0 size=   15104kB time=00:00:47.86 bitrate=2584.9kbits/s speed=1.03x    frame=  733 fps= 16 q=-1.0 size=   15360kB time=00:00:48.40 bitrate=2599.7kbits/s speed=1.03x    frame=  741 fps= 16 q=-1.0 size=   15616kB time=00:00:48.93 bitrate=2614.3kbits/s speed=1.03x    frame=  749 fps= 16 q=-1.0 size=   15616kB time=00:00:49.46 bitrate=2586.1kbits/s speed=1.03x    frame=  757 fps= 16 q=-1.0 size=   15872kB time=00:00:50.00 bitrate=2600.4kbits/s speed=1.03x    frame=  765 fps= 16 q=-1.0 size=   16128kB time=00:00:50.53 bitrate=2614.5kbits/s speed=1.03x    frame=  773 fps= 16 q=-1.0 size=   16128kB time=00:00:51.06 bitrate=2587.2kbits/s speed=1.03x    frame=  781 fps= 16 q=-1.0 size=   16384kB time=00:00:51.60 bitrate=2601.1kbits/s speed=1.03x    frame=  789 fps= 16 q=-1.0 size=   16640kB time=00:00:52.13 bitrate=2614.7kbits/s speed=1.03x    frame=  797 fps= 16 q=-1.0 size=   16640kB time=00:00:52.66 bitrate=2588.3kbits/s speed=1.03x    frame=  805 fps= 16 q=-1.0 size=   16896kB time=00:00:53.20 bitrate=2601.7kbits/s speed=1.03x    frame=  813 fps= 16 q=-1.0 size=   17152kB time=00:00:53.73 bitrate=2614.9kbits/s speed=1.03x    frame=  821 fps= 16 q=-1.0 size=   17152kB time=00:00:54.26 bitrate=2589.2kbits/s speed=1.03x    frame=  829 fps= 16 q=-1.0 size=   17408kB time=00:00:54.80 bitrate=2602.3kbits/s speed=1.03x    frame=  837 fps= 16 q=-1.0 size=   17664kB time=00:00:55.33 bitrate=2615.1kbits/s speed=1.03x    frame=  845 fps= 16 q=-1.0 size=   17664kB time=00:00:55.86 bitrate=2590.2kbits/s speed=1.03x    frame=  853 fps= 16 q=-1.0 size=   17920kB time=00:00:56.40 bitrate=2602.8kbits/s speed=1.03x    frame=  861 fps= 16 q=-1.0 size=   18176kB time=00:00:56.93 bitrate=2615.3kbits/s speed=1.03x    frame=  869 fps= 16 q=-1.0 size=   18176kB time=00:00:57.46 bitrate=2591.0kbits/s speed=1.03x    frame=  877 fps= 16 q=-1.0 size=   18432kB time=00:00:58.00 bitrate=2603.3kbits/s speed=1.03x    frame=  885 fps= 16 q=-1.0 size=   18688kB time=00:00:58.53 bitrate=2615.5kbits/s speed=1.03x    frame=  893 fps= 16 q=-1.0 size=   18688kB time=00:00:59.06 bitrate=2591.9kbits/s speed=1.03x    frame=  901 fps= 16 q=-1.0 size=   18944kB time=00:00:59.60 bitrate=2603.8kbits/s speed=1.03x    frame=  909 fps= 16 q=-1.0 size=   19200kB time=00:01:00.13 bitrate=2615.6kbits/s speed=1.03x    frame=  917 fps= 16 q=-1.0 size=   19200kB time=00:01:00.66 bitrate=2592.6kbits/s speed=1.03x    frame=  925 fps= 16 q=-1.0 size=   19456kB time=00:01:01.20 bitrate=2604.3kbits/s speed=1.03x    frame=  933 fps= 15 q=-1.0 size=   19712kB time=00:01:01.73 bitrate=2615.8kbits/s speed=1.03x    frame=  941 fps= 15 q=-1.0 size=   19712kB time=00:01:02.26 bitrate=2593.4kbits/s speed=1.03x    frame=  949 fps= 15 q=-1.0 size=   19968kB time=00:01:02.80 bitrate=2604.7kbits/s speed=1.02x    frame=  957 fps= 15 q=-1.0 size=   20224kB time=00:01:03.33 bitrate=2615.9kbits/s speed=1.02x    frame=  965 fps= 15 q=-1.0 size=   20224kB time=00:01:03.86 bitrate=2594.1kbits/s speed=1.02x    frame=  973 fps= 15 q=-1.0 size=   20480kB time=00:01:04.40 bitrate=2605.1kbits/s speed=1.02x    frame=  981 fps= 15 q=-1.0 size=   20480kB time=00:01:04.93 bitrate=2583.8kbits/s speed=1.02x    frame=  989 fps= 15 q=-1.0 size=   20736kB time=00:01:05.46 bitrate=2594.8kbits/s speed=1.02x    frame=  997 fps= 15 q=-1.0 size=   20992kB time=00:01:06.00 bitrate=2605.5kbits/s speed=1.02x    frame= 1005 fps= 15 q=-1.0 size=   20992kB time=00:01:06.53 bitrate=2584.7kbits/s speed=1.02x    frame= 1013 fps= 15 q=-1.0 size=   21248kB time=00:01:07.06 bitrate=2595.4kbits/s speed=1.02x    frame= 1021 fps= 15 q=-1.0 size=   21504kB time=00:01:07.60 bitrate=2605.9kbits/s speed=1.02x    frame= 1029 fps= 15 q=-1.0 size=   21504kB time=00:01:08.13 bitrate=2585.5kbits/s speed=1.02x    frame= 1037 fps= 15 q=-1.0 size=   21760kB time=00:01:08.66 bitrate=2596.0kbits/s speed=1.02x    frame= 1045 fps= 15 q=-1.0 size=   21760kB time=00:01:09.20 bitrate=2576.0kbits/s speed=1.02x    frame= 1053 fps= 15 q=-1.0 size=   22016kB time=00:01:09.73 bitrate=2586.3kbits/s speed=1.02x    frame= 1061 fps= 15 q=-1.0 size=   22272kB time=00:01:10.26 bitrate=2596.6kbits/s speed=1.02x    frame= 1069 fps= 15 q=-1.0 size=   22272kB time=00:01:10.80 bitrate=2577.0kbits/s speed=1.02x    frame= 1077 fps= 15 q=-1.0 size=   22528kB time=00:01:11.33 bitrate=2587.1kbits/s speed=1.02x    frame= 1085 fps= 15 q=-1.0 size=   22784kB time=00:01:11.86 bitrate=2597.1kbits/s speed=1.02x    frame= 1093 fps= 15 q=-1.0 size=   22784kB time=00:01:12.40 bitrate=2578.0kbits/s speed=1.02x    frame= 1101 fps= 15 q=-1.0 size=   23040kB time=00:01:12.93 bitrate=2587.9kbits/s speed=1.02x    frame= 1109 fps= 15 q=-1.0 size=   23296kB time=00:01:13.46 bitrate=2597.7kbits/s speed=1.02x    frame= 1117 fps= 15 q=-1.0 size=   23296kB time=00:01:14.00 bitrate=2578.9kbits/s speed=1.02x    frame= 1125 fps= 15 q=-1.0 size=   23552kB time=00:01:14.53 bitrate=2588.6kbits/s speed=1.02x    frame= 1133 fps= 15 q=-1.0 size=   23552kB time=00:01:15.06 bitrate=2570.2kbits/s speed=1.02x    frame= 1141 fps= 15 q=-1.0 size=   23808kB time=00:01:15.60 bitrate=2579.8kbits/s speed=1.02x    frame= 1149 fps= 15 q=-1.0 size=   24064kB time=00:01:16.13 bitrate=2589.3kbits/s speed=1.02x    frame= 1157 fps= 15 q=-1.0 size=   24064kB time=00:01:16.66 bitrate=2571.3kbits/s speed=1.02x    frame= 1165 fps= 15 q=-1.0 size=   24320kB time=00:01:17.20 bitrate=2580.7kbits/s speed=1.02x    frame= 1173 fps= 15 q=-1.0 size=   24576kB time=00:01:17.73 bitrate=2590.0kbits/s speed=1.02x    frame= 1181 fps= 15 q=-1.0 size=   24576kB time=00:01:18.26 bitrate=2572.3kbits/s speed=1.02x    frame= 1189 fps= 15 q=-1.0 size=   24832kB time=00:01:18.80 bitrate=2581.5kbits/s speed=1.02x    frame= 1197 fps= 15 q=-1.0 size=   24832kB time=00:01:19.33 bitrate=2564.2kbits/s speed=1.02x    frame= 1205 fps= 15 q=-1.0 size=   25088kB time=00:01:19.86 bitrate=2573.3kbits/s speed=1.02x    frame= 1213 fps= 15 q=-1.0 size=   25344kB time=00:01:20.40 bitrate=2582.3kbits/s speed=1.02x    frame= 1221 fps= 15 q=-1.0 size=   25344kB time=00:01:20.93 bitrate=2565.3kbits/s speed=1.02x    frame= 1229 fps= 15 q=-1.0 size=   25600kB time=00:01:21.46 bitrate=2574.2kbits/s speed=1.02x    frame= 1237 fps= 15 q=-1.0 size=   25600kB time=00:01:22.00 bitrate=2557.5kbits/s speed=1.02x    frame= 1245 fps= 15 q=-1.0 size=   25856kB time=00:01:22.53 bitrate=2566.4kbits/s speed=1.02x    frame= 1253 fps= 15 q=-1.0 size=   26112kB time=00:01:23.06 bitrate=2575.2kbits/s speed=1.02x    frame= 1261 fps= 15 q=-1.0 size=   26112kB time=00:01:23.60 bitrate=2558.7kbits/s speed=1.02x    frame= 1269 fps= 15 q=-1.0 size=   26368kB time=00:01:24.13 bitrate=2567.4kbits/s speed=1.02x    frame= 1277 fps= 15 q=-1.0 size=   26624kB time=00:01:24.66 bitrate=2576.0kbits/s speed=1.02x    frame= 1285 fps= 15 q=-1.0 size=   26624kB time=00:01:25.20 bitrate=2559.9kbits/s speed=1.02x    frame= 1293 fps= 15 q=-1.0 size=   26880kB time=00:01:25.73 bitrate=2568.4kbits/s speed=1.02x    frame= 1301 fps= 15 q=-1.0 size=   26880kB time=00:01:26.26 bitrate=2552.6kbits/s speed=1.02x    frame= 1309 fps= 15 q=-1.0 size=   27136kB time=00:01:26.80 bitrate=2561.0kbits/s speed=1.02x    frame= 1317 fps= 15 q=-1.0 size=   27392kB time=00:01:27.33 bitrate=2569.4kbits/s speed=1.02x    frame= 1325 fps= 15 q=-1.0 size=   27392kB time=00:01:27.86 bitrate=2553.8kbits/s speed=1.02x    frame= 1333 fps= 15 q=-1.0 size=   27648kB time=00:01:28.40 bitrate=2562.1kbits/s speed=1.02x    frame= 1341 fps= 15 q=-1.0 size=   27904kB time=00:01:28.93 bitrate=2570.3kbits/s speed=1.02x    frame= 1349 fps= 15 q=-1.0 size=   27904kB time=00:01:29.46 bitrate=2555.0kbits/s speed=1.02x    frame= 1357 fps= 15 q=-1.0 size=   28160kB time=00:01:30.00 bitrate=2563.2kbits/s speed=1.02x    frame= 1365 fps= 15 q=-1.0 size=   28416kB time=00:01:30.53 bitrate=2571.2kbits/s speed=1.02x    frame= 1373 fps= 15 q=-1.0 size=   28416kB time=00:01:31.06 bitrate=2556.2kbits/s speed=1.02x    frame= 1381 fps= 15 q=-1.0 size=   28672kB time=00:01:31.60 bitrate=2564.2kbits/s speed=1.02x    frame= 1389 fps= 15 q=-1.0 size=   28672kB time=00:01:32.13 bitrate=2549.4kbits/s speed=1.02x    frame= 1397 fps= 15 q=-1.0 size=   28928kB time=00:01:32.66 bitrate=2557.3kbits/s speed=1.02x    frame= 1405 fps= 15 q=-1.0 size=   29184kB time=00:01:33.20 bitrate=2565.2kbits/s speed=1.02x    frame= 1413 fps= 15 q=-1.0 size=   29184kB time=00:01:33.73 bitrate=2550.6kbits/s speed=1.02x    frame= 1421 fps= 15 q=-1.0 size=   29440kB time=00:01:34.26 bitrate=2558.4kbits/s speed=1.02x    frame= 1429 fps= 15 q=-1.0 size=   29696kB time=00:01:34.80 bitrate=2566.1kbits/s speed=1.02x    frame= 1437 fps= 15 q=-1.0 size=   29696kB time=00:01:35.33 bitrate=2551.8kbits/s speed=1.02x    frame= 1445 fps= 15 q=-1.0 size=   29952kB time=00:01:35.86 bitrate=2559.5kbits/s speed=1.02x    frame= 1453 fps= 15 q=-1.0 size=   30208kB time=00:01:36.40 bitrate=2567.0kbits/s speed=1.02x    frame= 1461 fps= 15 q=-1.0 size=   30208kB time=00:01:36.93 bitrate=2552.9kbits/s speed=1.02x    frame= 1469 fps= 15 q=-1.0 size=   30464kB time=00:01:37.46 bitrate=2560.5kbits/s speed=1.02x    frame= 1477 fps= 15 q=-1.0 size=   30720kB time=00:01:38.00 bitrate=2567.9kbits/s speed=1.02x    frame= 1485 fps= 15 q=-1.0 size=   30720kB time=00:01:38.53 bitrate=2554.0kbits/s speed=1.02x    frame= 1493 fps= 15 q=-1.0 size=   30976kB time=00:01:39.06 bitrate=2561.5kbits/s speed=1.02x    frame= 1501 fps= 15 q=-1.0 size=   30976kB time=00:01:39.60 bitrate=2547.7kbits/s speed=1.02x    frame= 1509 fps= 15 q=-1.0 size=   31232kB time=00:01:40.13 bitrate=2555.1kbits/s speed=1.02x    frame= 1517 fps= 15 q=-1.0 size=   31488kB time=00:01:40.66 bitrate=2562.4kbits/s speed=1.02x    frame= 1525 fps= 15 q=-1.0 size=   31488kB time=00:01:41.20 bitrate=2548.9kbits/s speed=1.02x    frame= 1533 fps= 15 q=-1.0 size=   31744kB time=00:01:41.73 bitrate=2556.2kbits/s speed=1.02x    frame= 1541 fps= 15 q=-1.0 size=   32000kB time=00:01:42.26 bitrate=2563.3kbits/s speed=1.02x    frame= 1549 fps= 15 q=-1.0 size=   32000kB time=00:01:42.80 bitrate=2550.0kbits/s speed=1.02x    frame= 1557 fps= 15 q=-1.0 size=   32256kB time=00:01:43.33 bitrate=2557.2kbits/s speed=1.02x    frame= 1565 fps= 15 q=-1.0 size=   32512kB time=00:01:43.86 bitrate=2564.2kbits/s speed=1.02x    frame= 1573 fps= 15 q=-1.0 size=   32512kB time=00:01:44.40 bitrate=2551.1kbits/s speed=1.02x    frame= 1581 fps= 15 q=-1.0 size=   32768kB time=00:01:44.93 bitrate=2558.1kbits/s speed=1.02x    frame= 1589 fps= 15 q=-1.0 size=   33024kB time=00:01:45.46 bitrate=2565.1kbits/s speed=1.02x    frame= 1597 fps= 15 q=-1.0 size=   33024kB time=00:01:46.00 bitrate=2552.2kbits/s speed=1.02x    frame= 1605 fps= 15 q=-1.0 size=   33280kB time=00:01:46.53 bitrate=2559.1kbits/s speed=1.01x    frame= 1613 fps= 15 q=-1.0 size=   33536kB time=00:01:47.06 bitrate=2565.9kbits/s speed=1.01x    frame= 1621 fps= 15 q=-1.0 size=   33536kB time=00:01:47.60 bitrate=2553.2kbits/s speed=1.01x    frame= 1629 fps= 15 q=-1.0 size=   33792kB time=00:01:48.13 bitrate=2560.0kbits/s speed=1.01x    frame= 1637 fps= 15 q=-1.0 size=   34048kB time=00:01:48.66 bitrate=2566.8kbits/s speed=1.01x    frame= 1645 fps= 15 q=-1.0 size=   34048kB time=00:01:49.20 bitrate=2554.2kbits/s speed=1.01x    frame= 1653 fps= 15 q=-1.0 size=   34304kB time=00:01:49.73 bitrate=2560.9kbits/s speed=1.01x    frame= 1661 fps= 15 q=-1.0 size=   34560kB time=00:01:50.26 bitrate=2567.6kbits/s speed=1.01x    frame= 1669 fps= 15 q=-1.0 size=   34560kB time=00:01:50.80 bitrate=2555.2kbits/s speed=1.01x    frame= 1677 fps= 15 q=-1.0 size=   34816kB time=00:01:51.33 bitrate=2561.8kbits/s speed=1.01x    frame= 1685 fps= 15 q=-1.0 size=   35072kB time=00:01:51.86 bitrate=2568.3kbits/s speed=1.01x    frame= 1693 fps= 15 q=-1.0 size=   35072kB time=00:01:52.40 bitrate=2556.1kbits/s speed=1.01x    frame= 1701 fps= 15 q=-1.0 size=   35328kB time=00:01:52.93 bitrate=2562.6kbits/s speed=1.01x    frame= 1709 fps= 15 q=-1.0 size=   35584kB time=00:01:53.46 bitrate=2569.1kbits/s speed=1.01x    frame= 1717 fps= 15 q=-1.0 size=   35584kB time=00:01:54.00 bitrate=2557.0kbits/s speed=1.01x    frame= 1725 fps= 15 q=-1.0 size=   35840kB time=00:01:54.53 bitrate=2563.5kbits/s speed=1.01x    frame= 1733 fps= 15 q=-1.0 size=   36096kB time=00:01:55.06 bitrate=2569.8kbits/s speed=1.01x    frame= 1741 fps= 15 q=-1.0 size=   36096kB time=00:01:55.60 bitrate=2557.9kbits/s speed=1.01x    frame= 1749 fps= 15 q=-1.0 size=   36352kB time=00:01:56.13 bitrate=2564.3kbits/s speed=1.01x    frame= 1757 fps= 15 q=-1.0 size=   36608kB time=00:01:56.66 bitrate=2570.5kbits/s speed=1.01x    frame= 1765 fps= 15 q=-1.0 size=   36608kB time=00:01:57.20 bitrate=2558.8kbits/s speed=1.01x    frame= 1773 fps= 15 q=-1.0 size=   36864kB time=00:01:57.73 bitrate=2565.0kbits/s speed=1.01x    frame= 1781 fps= 15 q=-1.0 size=   37120kB time=00:01:58.26 bitrate=2571.2kbits/s speed=1.01x    frame= 1789 fps= 15 q=-1.0 size=   37120kB time=00:01:58.80 bitrate=2559.6kbits/s speed=1.01x    frame= 1797 fps= 15 q=-1.0 size=   37376kB time=00:01:59.33 bitrate=2565.8kbits/s speed=1.01x    frame= 1805 fps= 15 q=-1.0 size=   37632kB time=00:01:59.86 bitrate=2571.9kbits/s speed=1.01x    frame= 1813 fps= 15 q=-1.0 size=   37632kB time=00:02:00.40 bitrate=2560.5kbits/s speed=1.01x    frame= 1821 fps= 15 q=-1.0 size=   37888kB time=00:02:00.93 bitrate=2566.5kbits/s speed=1.01x    frame= 1829 fps= 15 q=-1.0 size=   38144kB time=00:02:01.46 bitrate=2572.5kbits/s speed=1.01x    frame= 1837 fps= 15 q=-1.0 size=   38144kB time=00:02:02.00 bitrate=2561.3kbits/s speed=1.01x    frame= 1845 fps= 15 q=-1.0 size=   38400kB time=00:02:02.53 bitrate=2567.2kbits/s speed=1.01x    frame= 1853 fps= 15 q=-1.0 size=   38656kB time=00:02:03.06 bitrate=2573.2kbits/s speed=1.01x    frame= 1861 fps= 15 q=-1.0 size=   38656kB time=00:02:03.60 bitrate=2562.0kbits/s speed=1.01x    frame= 1869 fps= 15 q=-1.0 size=   38912kB time=00:02:04.13 bitrate=2567.9kbits/s speed=1.01x    frame= 1877 fps= 15 q=-1.0 size=   39168kB time=00:02:04.66 bitrate=2573.8kbits/s speed=1.01x    frame= 1885 fps= 15 q=-1.0 size=   39168kB time=00:02:05.20 bitrate=2562.8kbits/s speed=1.01x    frame= 1893 fps= 15 q=-1.0 size=   39424kB time=00:02:05.73 bitrate=2568.6kbits/s speed=1.01x    frame= 1901 fps= 15 q=-1.0 size=   39680kB time=00:02:06.26 bitrate=2574.4kbits/s speed=1.01x    frame= 1909 fps= 15 q=-1.0 size=   39680kB time=00:02:06.80 bitrate=2563.5kbits/s speed=1.01x    frame= 1917 fps= 15 q=-1.0 size=   39936kB time=00:02:07.33 bitrate=2569.3kbits/s speed=1.01x    frame= 1925 fps= 15 q=-1.0 size=   40192kB time=00:02:07.86 bitrate=2575.0kbits/s speed=1.01x    frame= 1933 fps= 15 q=-1.0 size=   40192kB time=00:02:08.40 bitrate=2564.3kbits/s speed=1.01x    frame= 1941 fps= 15 q=-1.0 size=   40448kB time=00:02:08.93 bitrate=2569.9kbits/s speed=1.01x    frame= 1949 fps= 15 q=-1.0 size=   40704kB time=00:02:09.46 bitrate=2575.5kbits/s speed=1.01x    frame= 1957 fps= 15 q=-1.0 size=   40704kB time=00:02:10.00 bitrate=2565.0kbits/s speed=1.01x    frame= 1965 fps= 15 q=-1.0 size=   40960kB time=00:02:10.53 bitrate=2570.6kbits/s speed=1.01x    frame= 1973 fps= 15 q=-1.0 size=   41216kB time=00:02:11.06 bitrate=2576.1kbits/s speed=1.01x    frame= 1981 fps= 15 q=-1.0 size=   41216kB time=00:02:11.60 bitrate=2565.7kbits/s speed=1.01x    frame= 1989 fps= 15 q=-1.0 size=   41472kB time=00:02:12.13 bitrate=2571.2kbits/s speed=1.01x    frame= 1997 fps= 15 q=-1.0 size=   41728kB time=00:02:12.66 bitrate=2576.7kbits/s speed=1.01x    frame= 2005 fps= 15 q=-1.0 size=   41728kB time=00:02:13.20 bitrate=2566.3kbits/s speed=1.01x    frame= 2013 fps= 15 q=-1.0 size=   41984kB time=00:02:13.73 bitrate=2571.8kbits/s speed=1.01x    frame= 2021 fps= 15 q=-1.0 size=   42240kB time=00:02:14.26 bitrate=2577.2kbits/s speed=1.01x    frame= 2029 fps= 15 q=-1.0 size=   42240kB time=00:02:14.80 bitrate=2567.0kbits/s speed=1.01x    frame= 2037 fps= 15 q=-1.0 size=   42496kB time=00:02:15.33 bitrate=2572.4kbits/s speed=1.01x    frame= 2045 fps= 15 q=-1.0 size=   42496kB time=00:02:15.86 bitrate=2562.3kbits/s speed=1.01x    frame= 2053 fps= 15 q=-1.0 size=   42752kB time=00:02:16.40 bitrate=2567.6kbits/s speed=1.01x    frame= 2061 fps= 15 q=-1.0 size=   43008kB time=00:02:16.93 bitrate=2572.9kbits/s speed=1.01x    frame= 2069 fps= 15 q=-1.0 size=   43264kB time=00:02:17.46 bitrate=2578.2kbits/s speed=1.01x    frame= 2077 fps= 15 q=-1.0 size=   43264kB time=00:02:18.00 bitrate=2568.2kbits/s speed=1.01x    frame= 2085 fps= 15 q=-1.0 size=   43520kB time=00:02:18.53 bitrate=2573.5kbits/s speed=1.01x    frame= 2093 fps= 15 q=-1.0 size=   43776kB time=00:02:19.06 bitrate=2578.7kbits/s speed=1.01x    frame= 2101 fps= 15 q=-1.0 size=   43776kB time=00:02:19.60 bitrate=2568.9kbits/s speed=1.01x    frame= 2109 fps= 15 q=-1.0 size=   44032kB time=00:02:20.13 bitrate=2574.0kbits/s speed=1.01x    frame= 2117 fps= 15 q=-1.0 size=   44288kB time=00:02:20.66 bitrate=2579.2kbits/s speed=1.01x    frame= 2125 fps= 15 q=-1.0 size=   44288kB time=00:02:21.20 bitrate=2569.4kbits/s speed=1.01x    frame= 2133 fps= 15 q=-1.0 size=   44544kB time=00:02:21.73 bitrate=2574.6kbits/s speed=1.01x    frame= 2141 fps= 15 q=-1.0 size=   44544kB time=00:02:22.26 bitrate=2564.9kbits/s speed=1.01x    frame= 2149 fps= 15 q=-1.0 size=   44800kB time=00:02:22.80 bitrate=2570.0kbits/s speed=1.01x    frame= 2157 fps= 15 q=-1.0 size=   45056kB time=00:02:23.33 bitrate=2575.1kbits/s speed=1.01x    frame= 2165 fps= 15 q=-1.0 size=   45056kB time=00:02:23.86 bitrate=2565.6kbits/s speed=1.01x    frame= 2173 fps= 15 q=-1.0 size=   45312kB time=00:02:24.40 bitrate=2570.6kbits/s speed=1.01x    frame= 2181 fps= 15 q=-1.0 size=   45312kB time=00:02:24.93 bitrate=2561.1kbits/s speed=1.01x    frame= 2189 fps= 15 q=-1.0 size=   45568kB time=00:02:25.46 bitrate=2566.2kbits/s speed=1.01x    frame= 2197 fps= 15 q=-1.0 size=   45824kB time=00:02:26.00 bitrate=2571.2kbits/s speed=1.01x    frame= 2205 fps= 15 q=-1.0 size=   45824kB time=00:02:26.53 bitrate=2561.8kbits/s speed=1.01x    frame= 2213 fps= 15 q=-1.0 size=   46080kB time=00:02:27.06 bitrate=2566.8kbits/s speed=1.01x    frame= 2221 fps= 15 q=-1.0 size=   46336kB time=00:02:27.60 bitrate=2571.7kbits/s speed=1.01x    frame= 2229 fps= 15 q=-1.0 size=   46336kB time=00:02:28.13 bitrate=2562.4kbits/s speed=1.01x    frame= 2237 fps= 15 q=-1.0 size=   46592kB time=00:02:28.66 bitrate=2567.4kbits/s speed=1.01x    frame= 2245 fps= 15 q=-1.0 size=   46848kB time=00:02:29.20 bitrate=2572.2kbits/s speed=1.01x    frame= 2253 fps= 15 q=-1.0 size=   47104kB time=00:02:29.73 bitrate=2577.1kbits/s speed=1.01x    frame= 2261 fps= 15 q=-1.0 size=   47360kB time=00:02:30.26 bitrate=2581.9kbits/s speed=1.01x    frame= 2269 fps= 15 q=-1.0 size=   47616kB time=00:02:30.80 bitrate=2586.7kbits/s speed=1.01x    frame= 2277 fps= 15 q=-1.0 size=   47616kB time=00:02:31.33 bitrate=2577.6kbits/s speed=1.01x    frame= 2285 fps= 15 q=-1.0 size=   47872kB time=00:02:31.86 bitrate=2582.3kbits/s speed=1.01x    frame= 2293 fps= 15 q=-1.0 size=   48128kB time=00:02:32.40 bitrate=2587.0kbits/s speed=1.01x    frame= 2301 fps= 15 q=-1.0 size=   48128kB time=00:02:32.93 bitrate=2578.0kbits/s speed=1.01x    frame= 2309 fps= 15 q=-1.0 size=   48384kB time=00:02:33.46 bitrate=2582.7kbits/s speed=1.01x    frame= 2317 fps= 15 q=-1.0 size=   48384kB time=00:02:34.00 bitrate=2573.8kbits/s speed=1.01x    frame= 2325 fps= 15 q=-1.0 size=   48640kB time=00:02:34.53 bitrate=2578.5kbits/s speed=1.01x    frame= 2333 fps= 15 q=-1.0 size=   48896kB time=00:02:35.06 bitrate=2583.1kbits/s speed=1.01x    frame= 2341 fps= 15 q=-1.0 size=   48896kB time=00:02:35.60 bitrate=2574.3kbits/s speed=1.01x    frame= 2349 fps= 15 q=-1.0 size=   49152kB time=00:02:36.13 bitrate=2578.9kbits/s speed=1.01x    frame= 2357 fps= 15 q=-1.0 size=   49408kB time=00:02:36.66 bitrate=2583.5kbits/s speed=1.01x    frame= 2365 fps= 15 q=-1.0 size=   49408kB time=00:02:37.20 bitrate=2574.7kbits/s speed=1.01x    frame= 2373 fps= 15 q=-1.0 size=   49664kB time=00:02:37.73 bitrate=2579.3kbits/s speed=1.01x    frame= 2381 fps= 15 q=-1.0 size=   49664kB time=00:02:38.26 bitrate=2570.6kbits/s speed=1.01x    frame= 2389 fps= 15 q=-1.0 size=   49920kB time=00:02:38.80 bitrate=2575.2kbits/s speed=1.01x    frame= 2397 fps= 15 q=-1.0 size=   49920kB time=00:02:39.33 bitrate=2566.6kbits/s speed=1.01x    frame= 2405 fps= 15 q=-1.0 size=   50176kB time=00:02:39.86 bitrate=2571.2kbits/s speed=1.01x    frame= 2413 fps= 15 q=-1.0 size=   50432kB time=00:02:40.40 bitrate=2575.7kbits/s speed=1.01x    frame= 2421 fps= 15 q=-1.0 size=   50688kB time=00:02:40.93 bitrate=2580.2kbits/s speed=1.01x    frame= 2429 fps= 15 q=-1.0 size=   50688kB time=00:02:41.46 bitrate=2571.7kbits/s speed=1.01x    frame= 2437 fps= 15 q=-1.0 size=   50944kB time=00:02:42.00 bitrate=2576.1kbits/s speed=1.01x    frame= 2445 fps= 15 q=-1.0 size=   50944kB time=00:02:42.53 bitrate=2567.7kbits/s speed=1.01x    frame= 2453 fps= 15 q=-1.0 size=   51200kB time=00:02:43.06 bitrate=2572.1kbits/s speed=1.01x    frame= 2461 fps= 15 q=-1.0 size=   51456kB time=00:02:43.60 bitrate=2576.6kbits/s speed=1.01x    frame= 2469 fps= 15 q=-1.0 size=   51456kB time=00:02:44.13 bitrate=2568.2kbits/s speed=1.01x    frame= 2477 fps= 15 q=-1.0 size=   51712kB time=00:02:44.66 bitrate=2572.6kbits/s speed=1.01x    frame= 2485 fps= 15 q=-1.0 size=   51712kB time=00:02:45.20 bitrate=2564.3kbits/s speed=1.01x    frame= 2493 fps= 15 q=-1.0 size=   51968kB time=00:02:45.73 bitrate=2568.7kbits/s speed=1.01x    frame= 2501 fps= 15 q=-1.0 size=   52224kB time=00:02:46.26 bitrate=2573.1kbits/s speed=1.01x    frame= 2509 fps= 15 q=-1.0 size=   52224kB time=00:02:46.80 bitrate=2564.9kbits/s speed=1.01x    frame= 2517 fps= 15 q=-1.0 size=   52480kB time=00:02:47.33 bitrate=2569.2kbits/s speed=1.01x    frame= 2525 fps= 15 q=-1.0 size=   52736kB time=00:02:47.86 bitrate=2573.6kbits/s speed=1.01x    frame= 2533 fps= 15 q=-1.0 size=   52736kB time=00:02:48.40 bitrate=2565.4kbits/s speed=1.01x    frame= 2541 fps= 15 q=-1.0 size=   52992kB time=00:02:48.93 bitrate=2569.7kbits/s speed=1.01x    frame= 2549 fps= 15 q=-1.0 size=   52992kB time=00:02:49.46 bitrate=2561.6kbits/s speed=1.01x    frame= 2557 fps= 15 q=-1.0 size=   53248kB time=00:02:50.00 bitrate=2565.9kbits/s speed=1.01x    frame= 2565 fps= 15 q=-1.0 size=   53504kB time=00:02:50.53 bitrate=2570.2kbits/s speed=1.01x    frame= 2573 fps= 15 q=-1.0 size=   53504kB time=00:02:51.06 bitrate=2562.2kbits/s speed=1.01x    frame= 2581 fps= 15 q=-1.0 size=   53760kB time=00:02:51.60 bitrate=2566.4kbits/s speed=1.01x    frame= 2589 fps= 15 q=-1.0 size=   53760kB time=00:02:52.13 bitrate=2558.5kbits/s speed=1.01x    frame= 2597 fps= 15 q=-1.0 size=   54016kB time=00:02:52.66 bitrate=2562.7kbits/s speed=1.01x    frame= 2605 fps= 15 q=-1.0 size=   54272kB time=00:02:53.20 bitrate=2566.9kbits/s speed=1.01x    frame= 2613 fps= 15 q=-1.0 size=   54272kB time=00:02:53.73 bitrate=2559.1kbits/s speed=1.01x    frame= 2621 fps= 15 q=-1.0 size=   54528kB time=00:02:54.26 bitrate=2563.3kbits/s speed=1.01x    frame= 2629 fps= 15 q=-1.0 size=   54784kB time=00:02:54.80 bitrate=2567.4kbits/s speed=1.01x    frame= 2637 fps= 15 q=-1.0 size=   54784kB time=00:02:55.33 bitrate=2559.6kbits/s speed=1.01x    frame= 2645 fps= 15 q=-1.0 size=   55040kB time=00:02:55.86 bitrate=2563.8kbits/s speed=1.01x    frame= 2653 fps= 15 q=-1.0 size=   55296kB time=00:02:56.40 bitrate=2567.9kbits/s speed=1.01x    frame= 2661 fps= 15 q=-1.0 size=   55296kB time=00:02:56.93 bitrate=2560.2kbits/s speed=1.01x    frame= 2669 fps= 15 q=-1.0 size=   55552kB time=00:02:57.46 bitrate=2564.3kbits/s speed=1.01x    frame= 2677 fps= 15 q=-1.0 size=   55552kB time=00:02:58.00 bitrate=2556.6kbits/s speed=1.01x    frame= 2685 fps= 15 q=-1.0 size=   55808kB time=00:02:58.53 bitrate=2560.7kbits/s speed=1.01x    frame= 2693 fps= 15 q=-1.0 size=   56064kB time=00:02:59.06 bitrate=2564.8kbits/s speed=1.01x    frame= 2701 fps= 15 q=-1.0 size=   56064kB time=00:02:59.60 bitrate=2557.2kbits/s speed=1.01x    frame= 2709 fps= 15 q=-1.0 size=   56320kB time=00:03:00.13 bitrate=2561.3kbits/s speed=1.01x    frame= 2717 fps= 15 q=-1.0 size=   56576kB time=00:03:00.66 bitrate=2565.3kbits/s speed=1.01x    frame= 2725 fps= 15 q=-1.0 size=   56576kB time=00:03:01.20 bitrate=2557.8kbits/s speed=1.01x    frame= 2733 fps= 15 q=-1.0 size=   56832kB time=00:03:01.73 bitrate=2561.8kbits/s speed=1.01x    frame= 2741 fps= 15 q=-1.0 size=   56832kB time=00:03:02.26 bitrate=2554.3kbits/s speed=1.01x    frame= 2749 fps= 15 q=-1.0 size=   57088kB time=00:03:02.80 bitrate=2558.3kbits/s speed=1.01x    frame= 2757 fps= 15 q=-1.0 size=   57344kB time=00:03:03.33 bitrate=2562.3kbits/s speed=1.01x    frame= 2765 fps= 15 q=-1.0 size=   57344kB time=00:03:03.86 bitrate=2554.9kbits/s speed=1.01x    frame= 2773 fps= 15 q=-1.0 size=   57600kB time=00:03:04.40 bitrate=2558.9kbits/s speed=1.01x    frame= 2781 fps= 15 q=-1.0 size=   57600kB time=00:03:04.93 bitrate=2551.5kbits/s speed=1.01x    frame= 2789 fps= 15 q=-1.0 size=   57856kB time=00:03:05.46 bitrate=2555.5kbits/s speed=1.01x    frame= 2797 fps= 15 q=-1.0 size=   58112kB time=00:03:06.00 bitrate=2559.4kbits/s speed=1.01x    frame= 2805 fps= 15 q=-1.0 size=   58368kB time=00:03:06.53 bitrate=2563.3kbits/s speed=1.01x    frame= 2813 fps= 15 q=-1.0 size=   58368kB time=00:03:07.06 bitrate=2556.0kbits/s speed=1.01x    frame= 2821 fps= 15 q=-1.0 size=   58624kB time=00:03:07.60 bitrate=2559.9kbits/s speed=1.01x    frame= 2829 fps= 15 q=-1.0 size=   58624kB time=00:03:08.13 bitrate=2552.7kbits/s speed=1.01x    frame= 2837 fps= 15 q=-1.0 size=   58880kB time=00:03:08.66 bitrate=2556.6kbits/s speed=1.01x    frame= 2845 fps= 15 q=-1.0 size=   58880kB time=00:03:09.20 bitrate=2549.4kbits/s speed=1.01x    frame= 2853 fps= 15 q=-1.0 size=   59136kB time=00:03:09.73 bitrate=2553.3kbits/s speed=1.01x    frame= 2861 fps= 15 q=-1.0 size=   59392kB time=00:03:10.26 bitrate=2557.1kbits/s speed=1.01x    frame= 2869 fps= 15 q=-1.0 size=   59392kB time=00:03:10.80 bitrate=2550.0kbits/s speed=1.01x    frame= 2877 fps= 15 q=-1.0 size=   59648kB time=00:03:11.33 bitrate=2553.8kbits/s speed=1.01x    frame= 2885 fps= 15 q=-1.0 size=   59648kB time=00:03:11.86 bitrate=2546.8kbits/s speed=1.01x    frame= 2893 fps= 15 q=-1.0 size=   59904kB time=00:03:12.40 bitrate=2550.6kbits/s speed=1.01x    frame= 2901 fps= 15 q=-1.0 size=   60160kB time=00:03:12.93 bitrate=2554.4kbits/s speed=1.01x    frame= 2909 fps= 15 q=-1.0 size=   60160kB time=00:03:13.46 bitrate=2547.4kbits/s speed=1.01x    frame= 2917 fps= 15 q=-1.0 size=   60416kB time=00:03:14.00 bitrate=2551.2kbits/s speed=1.01x    frame= 2925 fps= 15 q=-1.0 size=   60672kB time=00:03:14.53 bitrate=2555.0kbits/s speed=1.01x    frame= 2933 fps= 15 q=-1.0 size=   60672kB time=00:03:15.06 bitrate=2548.0kbits/s speed=1.01x    frame= 2941 fps= 15 q=-1.0 size=   60928kB time=00:03:15.60 bitrate=2551.7kbits/s speed=1.01x    frame= 2949 fps= 15 q=-1.0 size=   60928kB time=00:03:16.13 bitrate=2544.8kbits/s speed=1.01x    frame= 2957 fps= 15 q=-1.0 size=   61184kB time=00:03:16.66 bitrate=2548.6kbits/s speed=1.01x    frame= 2965 fps= 15 q=-1.0 size=   61440kB time=00:03:17.20 bitrate=2552.3kbits/s speed=1.01x    frame= 2973 fps= 15 q=-1.0 size=   61440kB time=00:03:17.73 bitrate=2545.4kbits/s speed=1.01x    frame= 2981 fps= 15 q=-1.0 size=   61696kB time=00:03:18.26 bitrate=2549.2kbits/s speed=1.01x    frame= 2989 fps= 15 q=-1.0 size=   61696kB time=00:03:18.80 bitrate=2542.3kbits/s speed=1.01x    frame= 2997 fps= 15 q=-1.0 size=   61952kB time=00:03:19.33 bitrate=2546.0kbits/s speed=1.01x    frame= 3005 fps= 15 q=-1.0 size=   62208kB time=00:03:19.86 bitrate=2549.7kbits/s speed=1.01x    frame= 3013 fps= 15 q=-1.0 size=   62208kB time=00:03:20.40 bitrate=2542.9kbits/s speed=1.01x    frame= 3021 fps= 15 q=-1.0 size=   62464kB time=00:03:20.93 bitrate=2546.6kbits/s speed=1.01x    frame= 3029 fps= 15 q=-1.0 size=   62720kB time=00:03:21.46 bitrate=2550.3kbits/s speed=1.01x    frame= 3037 fps= 15 q=-1.0 size=   62720kB time=00:03:22.00 bitrate=2543.6kbits/s speed=1.01x    frame= 3045 fps= 15 q=-1.0 size=   62976kB time=00:03:22.53 bitrate=2547.2kbits/s speed=1.01x    frame= 3053 fps= 15 q=-1.0 size=   63232kB time=00:03:23.06 bitrate=2550.9kbits/s speed=1.01x    frame= 3061 fps= 15 q=-1.0 size=   63232kB time=00:03:23.60 bitrate=2544.2kbits/s speed=1.01x    frame= 3069 fps= 15 q=-1.0 size=   63488kB time=00:03:24.13 bitrate=2547.8kbits/s speed=1.01x    frame= 3077 fps= 15 q=-1.0 size=   63744kB time=00:03:24.66 bitrate=2551.4kbits/s speed=1.01x    frame= 3085 fps= 15 q=-1.0 size=   63744kB time=00:03:25.20 bitrate=2544.8kbits/s speed=1.01x    frame= 3093 fps= 15 q=-1.0 size=   64000kB time=00:03:25.73 bitrate=2548.4kbits/s speed=1.01x    frame= 3101 fps= 15 q=-1.0 size=   64000kB time=00:03:26.26 bitrate=2541.8kbits/s speed=1.01x    frame= 3109 fps= 15 q=-1.0 size=   64256kB time=00:03:26.80 bitrate=2545.4kbits/s speed=1.01x    frame= 3117 fps= 15 q=-1.0 size=   64512kB time=00:03:27.33 bitrate=2548.9kbits/s speed=1.01x    frame= 3125 fps= 15 q=-1.0 size=   64512kB time=00:03:27.86 bitrate=2542.4kbits/s speed=1.01x    frame= 3133 fps= 15 q=-1.0 size=   64768kB time=00:03:28.40 bitrate=2546.0kbits/s speed=1.01x    frame= 3141 fps= 15 q=-1.0 size=   65024kB time=00:03:28.93 bitrate=2549.5kbits/s speed=1.01x    frame= 3149 fps= 15 q=-1.0 size=   65024kB time=00:03:29.46 bitrate=2543.0kbits/s speed=1.01x    frame= 3157 fps= 15 q=-1.0 size=   65280kB time=00:03:30.00 bitrate=2546.5kbits/s speed=1.01x    frame= 3165 fps= 15 q=-1.0 size=   65536kB time=00:03:30.53 bitrate=2550.0kbits/s speed=1.01x    frame= 3173 fps= 15 q=-1.0 size=   65536kB time=00:03:31.06 bitrate=2543.6kbits/s speed=1.01x    frame= 3181 fps= 15 q=-1.0 size=   65792kB time=00:03:31.60 bitrate=2547.1kbits/s speed=1.01x    frame= 3189 fps= 15 q=-1.0 size=   66048kB time=00:03:32.13 bitrate=2550.6kbits/s speed=1.01x    frame= 3197 fps= 15 q=-1.0 size=   66048kB time=00:03:32.66 bitrate=2544.2kbits/s speed=1.01x    frame= 3205 fps= 15 q=-1.0 size=   66304kB time=00:03:33.20 bitrate=2547.7kbits/s speed=1.01x    frame= 3213 fps= 15 q=-1.0 size=   66560kB time=00:03:33.73 bitrate=2551.1kbits/s speed=1.01x    frame= 3221 fps= 15 q=-1.0 size=   66560kB time=00:03:34.26 bitrate=2544.8kbits/s speed=1.01x    frame= 3229 fps= 15 q=-1.0 size=   66816kB time=00:03:34.80 bitrate=2548.2kbits/s speed=1.01x    frame= 3237 fps= 15 q=-1.0 size=   66816kB time=00:03:35.33 bitrate=2541.9kbits/s speed=1.01x    frame= 3245 fps= 15 q=-1.0 size=   67072kB time=00:03:35.86 bitrate=2545.3kbits/s speed=1.01x    frame= 3253 fps= 15 q=-1.0 size=   67328kB time=00:03:36.40 bitrate=2548.8kbits/s speed=1.01x    frame= 3261 fps= 15 q=-1.0 size=   67328kB time=00:03:36.93 bitrate=2542.5kbits/s speed=1.01x    frame= 3269 fps= 15 q=-1.0 size=   67584kB time=00:03:37.46 bitrate=2545.9kbits/s speed=1.01x    frame= 3277 fps= 15 q=-1.0 size=   67584kB time=00:03:38.00 bitrate=2539.7kbits/s speed=1.01x    frame= 3285 fps= 15 q=-1.0 size=   67840kB time=00:03:38.53 bitrate=2543.1kbits/s speed=1.01x    frame= 3293 fps= 15 q=-1.0 size=   68096kB time=00:03:39.06 bitrate=2546.5kbits/s speed=1.01x    frame= 3301 fps= 15 q=-1.0 size=   68096kB time=00:03:39.60 bitrate=2540.3kbits/s speed=1.01x    frame= 3309 fps= 15 q=-1.0 size=   68352kB time=00:03:40.13 bitrate=2543.6kbits/s speed=1.01x    frame= 3317 fps= 15 q=-1.0 size=   68352kB time=00:03:40.66 bitrate=2537.5kbits/s speed=1.01x    frame= 3325 fps= 15 q=-1.0 size=   68608kB time=00:03:41.20 bitrate=2540.8kbits/s speed=1.01x    frame= 3333 fps= 15 q=-1.0 size=   68864kB time=00:03:41.73 bitrate=2544.2kbits/s speed=1.01x    frame= 3341 fps= 15 q=-1.0 size=   68864kB time=00:03:42.26 bitrate=2538.1kbits/s speed=1.01x    frame= 3349 fps= 15 q=-1.0 size=   69120kB time=00:03:42.80 bitrate=2541.4kbits/s speed=1.01x    frame= 3357 fps= 15 q=-1.0 size=   69376kB time=00:03:43.33 bitrate=2544.8kbits/s speed=1.01x    frame= 3365 fps= 15 q=-1.0 size=   69376kB time=00:03:43.86 bitrate=2538.7kbits/s speed=1.01x    frame= 3373 fps= 15 q=-1.0 size=   69632kB time=00:03:44.40 bitrate=2542.0kbits/s speed=1.01x    frame= 3381 fps= 15 q=-1.0 size=   69632kB time=00:03:44.93 bitrate=2536.0kbits/s speed=1.01x    frame= 3389 fps= 15 q=-1.0 size=   69888kB time=00:03:45.46 bitrate=2539.3kbits/s speed=1.01x    frame= 3397 fps= 15 q=-1.0 size=   69888kB time=00:03:46.00 bitrate=2533.3kbits/s speed=1.01x    frame= 3405 fps= 15 q=-1.0 size=   70144kB time=00:03:46.53 bitrate=2536.6kbits/s speed=1.01x    frame= 3413 fps= 15 q=-1.0 size=   70400kB time=00:03:47.06 bitrate=2539.9kbits/s speed=1.01x    frame= 3421 fps= 15 q=-1.0 size=   70400kB time=00:03:47.60 bitrate=2533.9kbits/s speed=1.01x    frame= 3429 fps= 15 q=-1.0 size=   70656kB time=00:03:48.13 bitrate=2537.2kbits/s speed=1.01x    frame= 3437 fps= 15 q=-1.0 size=   70912kB time=00:03:48.66 bitrate=2540.4kbits/s speed=1.01x    frame= 3445 fps= 15 q=-1.0 size=   70912kB time=00:03:49.20 bitrate=2534.5kbits/s speed=1.01x    frame= 3453 fps= 15 q=-1.0 size=   71168kB time=00:03:49.73 bitrate=2537.8kbits/s speed=1.01x    frame= 3461 fps= 15 q=-1.0 size=   71424kB time=00:03:50.26 bitrate=2541.0kbits/s speed=1.01x    frame= 3469 fps= 15 q=-1.0 size=   71424kB time=00:03:50.80 bitrate=2535.1kbits/s speed=1.01x    frame= 3477 fps= 15 q=-1.0 size=   71680kB time=00:03:51.33 bitrate=2538.3kbits/s speed=1.01x    frame= 3485 fps= 15 q=-1.0 size=   71680kB time=00:03:51.86 bitrate=2532.5kbits/s speed=1.01x    frame= 3493 fps= 15 q=-1.0 size=   71936kB time=00:03:52.40 bitrate=2535.7kbits/s speed=1.01x    frame= 3501 fps= 15 q=-1.0 size=   71936kB time=00:03:52.93 bitrate=2529.9kbits/s speed=1.01x    frame= 3509 fps= 15 q=-1.0 size=   72192kB time=00:03:53.46 bitrate=2533.1kbits/s speed=1.01x    frame= 3517 fps= 15 q=-1.0 size=   72448kB time=00:03:54.00 bitrate=2536.3kbits/s speed=1.01x    frame= 3525 fps= 15 q=-1.0 size=   72448kB time=00:03:54.53 bitrate=2530.5kbits/s speed=1.01x    frame= 3533 fps= 15 q=-1.0 size=   72704kB time=00:03:55.06 bitrate=2533.7kbits/s speed=1.01x    frame= 3541 fps= 15 q=-1.0 size=   72704kB time=00:03:55.60 bitrate=2528.0kbits/s speed=1.01x    frame= 3549 fps= 15 q=-1.0 size=   72960kB time=00:03:56.13 bitrate=2531.1kbits/s speed=1.01x    frame= 3557 fps= 15 q=-1.0 size=   73216kB time=00:03:56.66 bitrate=2534.3kbits/s speed=1.01x    frame= 3565 fps= 15 q=-1.0 size=   73216kB time=00:03:57.20 bitrate=2528.6kbits/s speed=1.01x    frame= 3573 fps= 15 q=-1.0 size=   73472kB time=00:03:57.73 bitrate=2531.8kbits/s speed=1.01x    frame= 3581 fps= 15 q=-1.0 size=   73728kB time=00:03:58.26 bitrate=2534.9kbits/s speed=1.01x    frame= 3589 fps= 15 q=-1.0 size=   73728kB time=00:03:58.80 bitrate=2529.2kbits/s speed=1.01x    frame= 3597 fps= 15 q=-1.0 size=   73984kB time=00:03:59.33 bitrate=2532.4kbits/s speed=1.01x    frame= 3605 fps= 15 q=-1.0 size=   74240kB time=00:03:59.86 bitrate=2535.5kbits/s speed=1.01x    frame= 3613 fps= 15 q=-1.0 size=   74240kB time=00:04:00.40 bitrate=2529.8kbits/s speed=1.01x    frame= 3621 fps= 15 q=-1.0 size=   74496kB time=00:04:00.93 bitrate=2532.9kbits/s speed=1.01x    frame= 3629 fps= 15 q=-1.0 size=   74496kB time=00:04:01.46 bitrate=2527.4kbits/s speed=1.01x    frame= 3637 fps= 15 q=-1.0 size=   74752kB time=00:04:02.00 bitrate=2530.4kbits/s speed=1.01x    frame= 3645 fps= 15 q=-1.0 size=   75008kB time=00:04:02.53 bitrate=2533.5kbits/s speed=1.01x    frame= 3653 fps= 15 q=-1.0 size=   75264kB time=00:04:03.06 bitrate=2536.6kbits/s speed=1.01x    frame= 3661 fps= 15 q=-1.0 size=   75264kB time=00:04:03.60 bitrate=2531.0kbits/s speed=1.01x    frame= 3669 fps= 15 q=-1.0 size=   75520kB time=00:04:04.13 bitrate=2534.1kbits/s speed=1.01x    frame= 3677 fps= 15 q=-1.0 size=   75520kB time=00:04:04.66 bitrate=2528.6kbits/s speed=1.01x    frame= 3685 fps= 15 q=-1.0 size=   75776kB time=00:04:05.20 bitrate=2531.6kbits/s speed=1.01x    frame= 3693 fps= 15 q=-1.0 size=   75776kB time=00:04:05.73 bitrate=2526.1kbits/s speed=1.01x    frame= 3701 fps= 15 q=-1.0 size=   76032kB time=00:04:06.26 bitrate=2529.2kbits/s speed=1.01x    frame= 3709 fps= 15 q=-1.0 size=   76288kB time=00:04:06.80 bitrate=2532.2kbits/s speed=1.01x    frame= 3717 fps= 15 q=-1.0 size=   76288kB time=00:04:07.33 bitrate=2526.8kbits/s speed=1.01x    frame= 3725 fps= 15 q=-1.0 size=   76544kB time=00:04:07.86 bitrate=2529.8kbits/s speed=1.01x    frame= 3733 fps= 15 q=-1.0 size=   76800kB time=00:04:08.40 bitrate=2532.8kbits/s speed=1.01x    frame= 3741 fps= 15 q=-1.0 size=   77056kB time=00:04:08.93 bitrate=2535.8kbits/s speed=1.01x    frame= 3749 fps= 15 q=-1.0 size=   77312kB time=00:04:09.46 bitrate=2538.8kbits/s speed=1.01x    frame= 3757 fps= 15 q=-1.0 size=   77568kB time=00:04:10.00 bitrate=2541.7kbits/s speed=1.01x    frame= 3765 fps= 15 q=-1.0 size=   77824kB time=00:04:10.53 bitrate=2544.7kbits/s speed=1.01x    frame= 3773 fps= 15 q=-1.0 size=   77824kB time=00:04:11.06 bitrate=2539.3kbits/s speed=1.01x    frame= 3781 fps= 15 q=-1.0 size=   78080kB time=00:04:11.60 bitrate=2542.2kbits/s speed=1.01x    frame= 3789 fps= 15 q=-1.0 size=   78336kB time=00:04:12.13 bitrate=2545.2kbits/s speed=1.01x    frame= 3797 fps= 15 q=-1.0 size=   78336kB time=00:04:12.66 bitrate=2539.8kbits/s speed=1.01x    frame= 3805 fps= 15 q=-1.0 size=   78592kB time=00:04:13.20 bitrate=2542.8kbits/s speed=1.01x    frame= 3813 fps= 15 q=-1.0 size=   78848kB time=00:04:13.73 bitrate=2545.7kbits/s speed=1.01x    frame= 3821 fps= 15 q=-1.0 size=   78848kB time=00:04:14.26 bitrate=2540.3kbits/s speed=1.01x    frame= 3829 fps= 15 q=-1.0 size=   79104kB time=00:04:14.80 bitrate=2543.2kbits/s speed=1.01x    frame= 3837 fps= 15 q=-1.0 size=   79360kB time=00:04:15.33 bitrate=2546.1kbits/s speed=1.01x    frame= 3845 fps= 15 q=-1.0 size=   79360kB time=00:04:15.86 bitrate=2540.8kbits/s speed=1.01x    frame= 3853 fps= 15 q=-1.0 size=   79616kB time=00:04:16.40 bitrate=2543.7kbits/s speed=1.01x    frame= 3861 fps= 15 q=-1.0 size=   79872kB time=00:04:16.93 bitrate=2546.6kbits/s speed=1.01x    frame= 3869 fps= 15 q=-1.0 size=   80128kB time=00:04:17.46 bitrate=2549.5kbits/s speed=1.01x    frame= 3877 fps= 15 q=-1.0 size=   80128kB time=00:04:18.00 bitrate=2544.2kbits/s speed=1.01x    frame= 3885 fps= 15 q=-1.0 size=   80384kB time=00:04:18.53 bitrate=2547.1kbits/s speed=1.01x    frame= 3893 fps= 15 q=-1.0 size=   80384kB time=00:04:19.06 bitrate=2541.8kbits/s speed=1.01x    frame= 3901 fps= 15 q=-1.0 size=   80640kB time=00:04:19.60 bitrate=2544.7kbits/s speed=1.01x    frame= 3909 fps= 15 q=-1.0 size=   80896kB time=00:04:20.13 bitrate=2547.5kbits/s speed=1.01x    frame= 3917 fps= 15 q=-1.0 size=   80896kB time=00:04:20.66 bitrate=2542.3kbits/s speed=1.01x    frame= 3925 fps= 15 q=-1.0 size=   81152kB time=00:04:21.20 bitrate=2545.2kbits/s speed=1.01x    frame= 3933 fps= 15 q=-1.0 size=   81408kB time=00:04:21.73 bitrate=2548.0kbits/s speed=1.01x    frame= 3941 fps= 15 q=-1.0 size=   81408kB time=00:04:22.26 bitrate=2542.8kbits/s speed=1.01x    frame= 3949 fps= 15 q=-1.0 size=   81664kB time=00:04:22.80 bitrate=2545.6kbits/s speed=1.01x    frame= 3957 fps= 15 q=-1.0 size=   81664kB time=00:04:23.33 bitrate=2540.5kbits/s speed=1.01x    frame= 3965 fps= 15 q=-1.0 size=   81920kB time=00:04:23.86 bitrate=2543.3kbits/s speed=1.01x    frame= 3973 fps= 15 q=-1.0 size=   82176kB time=00:04:24.40 bitrate=2546.1kbits/s speed=1.01x    frame= 3981 fps= 15 q=-1.0 size=   82176kB time=00:04:24.93 bitrate=2541.0kbits/s speed=1.01x    frame= 3989 fps= 15 q=-1.0 size=   82432kB time=00:04:25.46 bitrate=2543.8kbits/s speed=1.01x    frame= 3997 fps= 15 q=-1.0 size=   82432kB time=00:04:26.00 bitrate=2538.7kbits/s speed=1.01x    frame= 4005 fps= 15 q=-1.0 size=   82688kB time=00:04:26.53 bitrate=2541.4kbits/s speed=1.01x    frame= 4013 fps= 15 q=-1.0 size=   82944kB time=00:04:27.06 bitrate=2544.2kbits/s speed=1.01x    frame= 4021 fps= 15 q=-1.0 size=   82944kB time=00:04:27.60 bitrate=2539.1kbits/s speed=1.01x    frame= 4029 fps= 15 q=-1.0 size=   83200kB time=00:04:28.13 bitrate=2541.9kbits/s speed=1.01x    frame= 4037 fps= 15 q=-1.0 size=   83200kB time=00:04:28.66 bitrate=2536.9kbits/s speed=1.01x    frame= 4045 fps= 15 q=-1.0 size=   83456kB time=00:04:29.20 bitrate=2539.6kbits/s speed=1.01x    frame= 4053 fps= 15 q=-1.0 size=   83712kB time=00:04:29.73 bitrate=2542.4kbits/s speed=1.01x    frame= 4061 fps= 15 q=-1.0 size=   83712kB time=00:04:30.26 bitrate=2537.4kbits/s speed=1.01x    frame= 4069 fps= 15 q=-1.0 size=   83968kB time=00:04:30.80 bitrate=2540.1kbits/s speed=1.01x    frame= 4077 fps= 15 q=-1.0 size=   83968kB time=00:04:31.33 bitrate=2535.1kbits/s speed=1.01x    frame= 4085 fps= 15 q=-1.0 size=   84224kB time=00:04:31.86 bitrate=2537.9kbits/s speed=1.01x    frame= 4093 fps= 15 q=-1.0 size=   84224kB time=00:04:32.40 bitrate=2532.9kbits/s speed=1.01x    frame= 4101 fps= 15 q=-1.0 size=   84480kB time=00:04:32.93 bitrate=2535.6kbits/s speed=1.01x    frame= 4109 fps= 15 q=-1.0 size=   84736kB time=00:04:33.46 bitrate=2538.4kbits/s speed=1.01x    frame= 4117 fps= 15 q=-1.0 size=   84736kB time=00:04:34.00 bitrate=2533.4kbits/s speed=1.01x    frame= 4125 fps= 15 q=-1.0 size=   84992kB time=00:04:34.53 bitrate=2536.1kbits/s speed=1.01x    frame= 4133 fps= 15 q=-1.0 size=   84992kB time=00:04:35.06 bitrate=2531.2kbits/s speed=1.01x    frame= 4141 fps= 15 q=-1.0 size=   85248kB time=00:04:35.60 bitrate=2533.9kbits/s speed=1.01x    frame= 4149 fps= 15 q=-1.0 size=   85504kB time=00:04:36.13 bitrate=2536.6kbits/s speed=1.01x    frame= 4157 fps= 15 q=-1.0 size=   85760kB time=00:04:36.66 bitrate=2539.3kbits/s speed=1.01x    frame= 4165 fps= 15 q=-1.0 size=   85760kB time=00:04:37.20 bitrate=2534.4kbits/s speed=1.01x    frame= 4173 fps= 15 q=-1.0 size=   86016kB time=00:04:37.73 bitrate=2537.1kbits/s speed=1.01x    frame= 4181 fps= 15 q=-1.0 size=   86016kB time=00:04:38.26 bitrate=2532.3kbits/s speed=1.01x    frame= 4189 fps= 15 q=-1.0 size=   86272kB time=00:04:38.80 bitrate=2534.9kbits/s speed=1.01x    frame= 4197 fps= 15 q=-1.0 size=   86272kB time=00:04:39.33 bitrate=2530.1kbits/s speed=1.01x    frame= 4205 fps= 15 q=-1.0 size=   86528kB time=00:04:39.86 bitrate=2532.8kbits/s speed=1.01x    frame= 4213 fps= 15 q=-1.0 size=   86784kB time=00:04:40.40 bitrate=2535.4kbits/s speed=1.01x    frame= 4221 fps= 15 q=-1.0 size=   86784kB time=00:04:40.93 bitrate=2530.6kbits/s speed=1.01x    frame= 4229 fps= 15 q=-1.0 size=   87040kB time=00:04:41.46 bitrate=2533.3kbits/s speed=1.01x    frame= 4237 fps= 15 q=-1.0 size=   87040kB time=00:04:42.00 bitrate=2528.5kbits/s speed=1.01x    frame= 4245 fps= 15 q=-1.0 size=   87296kB time=00:04:42.53 bitrate=2531.1kbits/s speed=1.01x    frame= 4253 fps= 15 q=-1.0 size=   87552kB time=00:04:43.06 bitrate=2533.8kbits/s speed=1.01x    frame= 4261 fps= 15 q=-1.0 size=   87552kB time=00:04:43.60 bitrate=2529.0kbits/s speed=1.01x    frame= 4269 fps= 15 q=-1.0 size=   87808kB time=00:04:44.13 bitrate=2531.6kbits/s speed=1.01x    frame= 4277 fps= 15 q=-1.0 size=   87808kB time=00:04:44.66 bitrate=2526.9kbits/s speed=1.01x    frame= 4285 fps= 15 q=-1.0 size=   88064kB time=00:04:45.20 bitrate=2529.5kbits/s speed=1.01x    frame= 4293 fps= 15 q=-1.0 size=   88320kB time=00:04:45.73 bitrate=2532.1kbits/s speed=1.01x    frame= 4301 fps= 15 q=-1.0 size=   88320kB time=00:04:46.26 bitrate=2527.4kbits/s speed=1.01x    frame= 4309 fps= 15 q=-1.0 size=   88576kB time=00:04:46.80 bitrate=2530.0kbits/s speed=1.01x    frame= 4317 fps= 15 q=-1.0 size=   88576kB time=00:04:47.33 bitrate=2525.3kbits/s speed=1.01x    frame= 4325 fps= 15 q=-1.0 size=   88832kB time=00:04:47.86 bitrate=2527.9kbits/s speed=1.01x    frame= 4333 fps= 15 q=-1.0 size=   89088kB time=00:04:48.40 bitrate=2530.5kbits/s speed=1.01x    frame= 4341 fps= 15 q=-1.0 size=   89088kB time=00:04:48.93 bitrate=2525.9kbits/s speed=1.01x    frame= 4349 fps= 15 q=-1.0 size=   89344kB time=00:04:49.46 bitrate=2528.5kbits/s speed=1.01x    frame= 4357 fps= 15 q=-1.0 size=   89600kB time=00:04:50.00 bitrate=2531.0kbits/s speed=1.01x    frame= 4365 fps= 15 q=-1.0 size=   89600kB time=00:04:50.53 bitrate=2526.4kbits/s speed=1.01x    frame= 4373 fps= 15 q=-1.0 size=   89856kB time=00:04:51.06 bitrate=2529.0kbits/s speed=1.01x    frame= 4381 fps= 15 q=-1.0 size=   89856kB time=00:04:51.60 bitrate=2524.3kbits/s speed=1.01x    frame= 4389 fps= 15 q=-1.0 size=   90112kB time=00:04:52.13 bitrate=2526.9kbits/s speed=1.01x    frame= 4397 fps= 15 q=-1.0 size=   90112kB time=00:04:52.66 bitrate=2522.3kbits/s speed=1.01x    frame= 4405 fps= 15 q=-1.0 size=   90368kB time=00:04:53.20 bitrate=2524.9kbits/s speed=1.01x    frame= 4413 fps= 15 q=-1.0 size=   90624kB time=00:04:53.73 bitrate=2527.4kbits/s speed=1.01x    frame= 4421 fps= 15 q=-1.0 size=   90880kB time=00:04:54.26 bitrate=2530.0kbits/s speed=1.01x    frame= 4429 fps= 15 q=-1.0 size=   90880kB time=00:04:54.80 bitrate=2525.4kbits/s speed=1.01x    frame= 4437 fps= 15 q=-1.0 size=   91136kB time=00:04:55.33 bitrate=2527.9kbits/s speed=1.01x    frame= 4445 fps= 15 q=-1.0 size=   91392kB time=00:04:55.86 bitrate=2530.5kbits/s speed=1.01x    frame= 4453 fps= 15 q=-1.0 size=   91648kB time=00:04:56.40 bitrate=2533.0kbits/s speed=1.01x    frame= 4461 fps= 15 q=-1.0 size=   91904kB time=00:04:56.93 bitrate=2535.5kbits/s speed=1.01x    frame= 4469 fps= 15 q=-1.0 size=   92160kB time=00:04:57.46 bitrate=2538.0kbits/s speed=1.01x    frame= 4477 fps= 15 q=-1.0 size=   92416kB time=00:04:58.00 bitrate=2540.5kbits/s speed=1.01x    frame= 4485 fps= 15 q=-1.0 size=   92416kB time=00:04:58.53 bitrate=2536.0kbits/s speed=1.01x    frame= 4493 fps= 15 q=-1.0 size=   92672kB time=00:04:59.06 bitrate=2538.5kbits/s speed=1.01x    frame= 4501 fps= 15 q=-1.0 size=   92928kB time=00:04:59.60 bitrate=2540.9kbits/s speed=1.01x    frame= 4509 fps= 15 q=-1.0 size=   93184kB time=00:05:00.13 bitrate=2543.4kbits/s speed=1.01x    frame= 4517 fps= 15 q=-1.0 size=   93440kB time=00:05:00.66 bitrate=2545.9kbits/s speed=1.01x    frame= 4525 fps= 15 q=-1.0 size=   93696kB time=00:05:01.20 bitrate=2548.3kbits/s speed=1.01x    frame= 4533 fps= 15 q=-1.0 size=   93952kB time=00:05:01.73 bitrate=2550.8kbits/s speed=1.01x    frame= 4541 fps= 15 q=-1.0 size=   94208kB time=00:05:02.26 bitrate=2553.2kbits/s speed=1.01x    frame= 4549 fps= 15 q=-1.0 size=   94208kB time=00:05:02.80 bitrate=2548.7kbits/s speed=1.01x    frame= 4557 fps= 15 q=-1.0 size=   94464kB time=00:05:03.33 bitrate=2551.1kbits/s speed=1.01x    frame= 4565 fps= 15 q=-1.0 size=   94720kB time=00:05:03.86 bitrate=2553.6kbits/s speed=1.01x    frame= 4573 fps= 15 q=-1.0 size=   94720kB time=00:05:04.40 bitrate=2549.1kbits/s speed=1.01x    frame= 4581 fps= 15 q=-1.0 size=   94976kB time=00:05:04.93 bitrate=2551.5kbits/s speed=1.01x    frame= 4589 fps= 15 q=-1.0 size=   95232kB time=00:05:05.46 bitrate=2553.9kbits/s speed=1.01x    frame= 4597 fps= 15 q=-1.0 size=   95232kB time=00:05:06.00 bitrate=2549.5kbits/s speed=1.01x    frame= 4605 fps= 15 q=-1.0 size=   95488kB time=00:05:06.53 bitrate=2551.9kbits/s speed=1.01x    frame= 4613 fps= 15 q=-1.0 size=   95744kB time=00:05:07.06 bitrate=2554.3kbits/s speed=1.01x    frame= 4621 fps= 15 q=-1.0 size=   95744kB time=00:05:07.60 bitrate=2549.8kbits/s speed=1.01x    frame= 4629 fps= 15 q=-1.0 size=   96000kB time=00:05:08.13 bitrate=2552.2kbits/s speed=1.01x    frame= 4637 fps= 15 q=-1.0 size=   96000kB time=00:05:08.66 bitrate=2547.8kbits/s speed=1.01x    frame= 4645 fps= 15 q=-1.0 size=   96256kB time=00:05:09.20 bitrate=2550.2kbits/s speed=1.01x    frame= 4653 fps= 15 q=-1.0 size=   96512kB time=00:05:09.73 bitrate=2552.6kbits/s speed=1.01x    frame= 4661 fps= 15 q=-1.0 size=   96768kB time=00:05:10.26 bitrate=2555.0kbits/s speed=1.01x    frame= 4669 fps= 15 q=-1.0 size=   96768kB time=00:05:10.80 bitrate=2550.6kbits/s speed=1.01x    frame= 4677 fps= 15 q=-1.0 size=   97024kB time=00:05:11.33 bitrate=2553.0kbits/s speed=1.01x    frame= 4685 fps= 15 q=-1.0 size=   97024kB time=00:05:11.86 bitrate=2548.6kbits/s speed=1.01x    frame= 4693 fps= 15 q=-1.0 size=   97280kB time=00:05:12.40 bitrate=2550.9kbits/s speed=1.01x    frame= 4701 fps= 15 q=-1.0 size=   97536kB time=00:05:12.93 bitrate=2553.3kbits/s speed=1.01x    frame= 4709 fps= 15 q=-1.0 size=   97792kB time=00:05:13.46 bitrate=2555.7kbits/s speed=1.01x    frame= 4717 fps= 15 q=-1.0 size=   97792kB time=00:05:14.00 bitrate=2551.3kbits/s speed=1.01x    frame= 4725 fps= 15 q=-1.0 size=   98048kB time=00:05:14.53 bitrate=2553.7kbits/s speed=1.01x    frame= 4733 fps= 15 q=-1.0 size=   98048kB time=00:05:15.06 bitrate=2549.3kbits/s speed=1.01x    frame= 4741 fps= 15 q=-1.0 size=   98304kB time=00:05:15.60 bitrate=2551.7kbits/s speed=1.01x    frame= 4749 fps= 15 q=-1.0 size=   98560kB time=00:05:16.13 bitrate=2554.0kbits/s speed=1.01x    frame= 4757 fps= 15 q=-1.0 size=   98816kB time=00:05:16.66 bitrate=2556.3kbits/s speed=1.01x    frame= 4765 fps= 15 q=-1.0 size=   98816kB time=00:05:17.20 bitrate=2552.0kbits/s speed=1.01x    frame= 4773 fps= 15 q=-1.0 size=   99072kB time=00:05:17.73 bitrate=2554.3kbits/s speed=1.01x    frame= 4781 fps= 15 q=-1.0 size=   99072kB time=00:05:18.26 bitrate=2550.1kbits/s speed=1.01x    frame= 4789 fps= 15 q=-1.0 size=   99328kB time=00:05:18.80 bitrate=2552.4kbits/s speed=1.01x    frame= 4797 fps= 15 q=-1.0 size=   99584kB time=00:05:19.33 bitrate=2554.7kbits/s speed=1.01x    frame= 4805 fps= 15 q=-1.0 size=   99584kB time=00:05:19.86 bitrate=2550.4kbits/s speed=1.01x    frame= 4813 fps= 15 q=-1.0 size=   99840kB time=00:05:20.40 bitrate=2552.7kbits/s speed=1.01x    frame= 4821 fps= 15 q=-1.0 size=  100096kB time=00:05:20.93 bitrate=2555.0kbits/s speed=1.01x    frame= 4829 fps= 15 q=-1.0 size=  100096kB time=00:05:21.46 bitrate=2550.8kbits/s speed=1.01x    frame= 4837 fps= 15 q=-1.0 size=  100352kB time=00:05:22.00 bitrate=2553.1kbits/s speed=1.01x    frame= 4845 fps= 15 q=-1.0 size=  100608kB time=00:05:22.53 bitrate=2555.3kbits/s speed=1.01x    frame= 4853 fps= 15 q=-1.0 size=  100864kB time=00:05:23.06 bitrate=2557.6kbits/s speed=1.01x    frame= 4861 fps= 15 q=-1.0 size=  101120kB time=00:05:23.60 bitrate=2559.9kbits/s speed=1.01x    frame= 4869 fps= 15 q=-1.0 size=  101120kB time=00:05:24.13 bitrate=2555.7kbits/s speed=1.01x    frame= 4877 fps= 15 q=-1.0 size=  101376kB time=00:05:24.66 bitrate=2557.9kbits/s speed=1.01x    frame= 4885 fps= 15 q=-1.0 size=  101376kB time=00:05:25.20 bitrate=2553.7kbits/s speed=1.01x    frame= 4893 fps= 15 q=-1.0 size=  101632kB time=00:05:25.73 bitrate=2556.0kbits/s speed=1.01x    frame= 4901 fps= 15 q=-1.0 size=  101888kB time=00:05:26.26 bitrate=2558.2kbits/s speed=1.01x    frame= 4909 fps= 15 q=-1.0 size=  101888kB time=00:05:26.80 bitrate=2554.1kbits/s speed=1.01x    frame= 4917 fps= 15 q=-1.0 size=  102144kB time=00:05:27.33 bitrate=2556.3kbits/s speed=1.01x    frame= 4925 fps= 15 q=-1.0 size=  102400kB time=00:05:27.86 bitrate=2558.5kbits/s speed=1.01x    frame= 4933 fps= 15 q=-1.0 size=  102400kB time=00:05:28.40 bitrate=2554.4kbits/s speed=1.01x    frame= 4941 fps= 15 q=-1.0 size=  102656kB time=00:05:28.93 bitrate=2556.6kbits/s speed=1.01x    frame= 4949 fps= 15 q=-1.0 size=  102656kB time=00:05:29.46 bitrate=2552.5kbits/s speed=1.01x    frame= 4957 fps= 15 q=-1.0 size=  102912kB time=00:05:30.00 bitrate=2554.7kbits/s speed=1.01x    frame= 4965 fps= 15 q=-1.0 size=  103168kB time=00:05:30.53 bitrate=2556.9kbits/s speed=1.01x    frame= 4973 fps= 15 q=-1.0 size=  103168kB time=00:05:31.06 bitrate=2552.8kbits/s speed=1.01x    frame= 4981 fps= 15 q=-1.0 size=  103424kB time=00:05:31.60 bitrate=2555.0kbits/s speed=1.01x    frame= 4989 fps= 15 q=-1.0 size=  103680kB time=00:05:32.13 bitrate=2557.2kbits/s speed=1.01x    frame= 4997 fps= 15 q=-1.0 size=  103680kB time=00:05:32.66 bitrate=2553.1kbits/s speed=1.01x    